<?xml version="1.0" encoding="utf-8"?>
<!-- Svg Vector Icons : http://www.onlinewebfonts.com/icon -->
<!DOCTYPE svg PUBLIC "-//W3C//DTD SVG 1.1//EN" "http://www.w3.org/Graphics/SVG/1.1/DTD/svg11.dtd">
<svg version="1.1" xmlns="http://www.w3.org/2000/svg" xmlns:xlink="http://www.w3.org/1999/xlink" x="0px" y="0px" viewBox="0 0 1000 1000" enable-background="new 0 0 1000 1000" xml:space="preserve">
<g><path  fill="#344eff" d="M354,123.6c0-47.1,38.2-74.6,85.4-74.6h131.8c47.2,0,74.8,27.5,74.8,74.6v127.8h39.1V123.6c0-62.8-51-113.6-113.9-113.6H428.8c-62.9,0-113.9,50.9-113.9,113.6v127.8H354L354,123.6L354,123.6z M371.9,279.8H258c-15.7,0-28.5,12.7-28.5,28.4c0,15.7,12.8,28.4,28.5,28.4h113.9V279.8z M500,208.8c-55,0-99.7,44.5-99.7,99.4c0,54.9,44.6,99.4,99.7,99.4c55,0,99.7-44.5,99.7-99.4C599.7,253.4,555,208.8,500,208.8z M500,365.1c-31.5,0-56.9-25.4-56.9-56.8c0-31.4,25.5-56.8,56.9-56.8c31.5,0,57,25.4,57,56.8C557,339.6,531.5,365.1,500,365.1z M596.5,389.4c-20.1,32.2-55.6,53.8-96.5,53.8c-40.8,0-76.3-21.6-96.5-53.8c-50.7,11.5-88.6,56.5-88.6,110.6v262.8c0,52.9,36.4,96.9,85.4,109.6h28.5V720.1c0-39.2,31.9-71,71.2-71c39.3,0,81.4,31.8,81.4,71v152.2h18.3c49-12.7,85.4-56.7,85.4-109.6V500C685.1,445.9,647.2,400.9,596.5,389.4z M742,279.8H628.1v56.8H742c15.7,0,28.5-12.7,28.5-28.4C770.5,292.6,757.8,279.8,742,279.8z M505.1,694c-30.1,0-40.8,22.9-40.8,51v193.9c0,28.2,10.8,51.1,40.8,51.1s40.8-22.9,40.8-51.1V745C545.9,716.8,535.2,694,505.1,694z"/></g>
</svg>