<svg xmlns="http://www.w3.org/2000/svg" xmlns:xlink="http://www.w3.org/1999/xlink" width="31" height="30" viewBox="0 0 31 30"><defs><path id="35jqa" d="M735.73 1383.55h-4.6v-24.29h4.6a2.3 2.3 0 0 1 2.31 2.31v19.66a2.3 2.3 0 0 1-2.3 2.32zm-19.6-26.6a2.3 2.3 0 0 1 2.31-2.31h8.07a2.3 2.3 0 0 1 2.3 2.3v26.6h-12.68zm2.31 2.31h8.07v-1.15c0-.64-.52-1.16-1.15-1.16h-5.77c-.63 0-1.15.52-1.15 1.16v1.15zm-11.53 21.97v-19.66a2.3 2.3 0 0 1 2.3-2.3h4.62v24.28h-4.61a2.3 2.3 0 0 1-2.3-2.32z"/></defs><g><g transform="translate(-707 -1354)"><use fill="#344eff" xlink:href="#35jqa"/><use fill="#fff" xlink:href="#35jqa"/></g></g></svg>