<svg xmlns="http://www.w3.org/2000/svg" xmlns:xlink="http://www.w3.org/1999/xlink" width="42" height="31" viewBox="0 0 42 31"><defs><path id="2n1na" d="M369.77 1216.98c2.95 0 6.43-2.6 8.22-2.6 10.86 0 16.97 29.9 8.86 29.9-5.06 0-9.52-8.67-17.1-8.67-9.38 0-10.3 8.78-17.15 8.78-8.12 0-1.9-30 8.95-30 1.58 0 5.27 2.6 8.22 2.6zm8.86 5.85c0 .72.56 1.3 1.26 1.3s1.26-.58 1.26-1.3c0-.72-.56-1.3-1.26-1.3s-1.26.58-1.26 1.3zm3.79 3.9c0 .72.57 1.3 1.26 1.3.7 0 1.27-.58 1.27-1.3 0-.72-.57-1.3-1.27-1.3-.7 0-1.26.58-1.26 1.3zm-3.8 3.9c0 .72.57 1.3 1.27 1.3.7 0 1.26-.58 1.26-1.3 0-.72-.56-1.3-1.26-1.3s-1.26.58-1.26 1.3zm-3.87-3.9c0 .72.57 1.3 1.27 1.3.7 0 1.26-.58 1.26-1.3 0-.72-.56-1.3-1.26-1.3s-1.27.58-1.27 1.3zm-19.52-1.3a5.77 5.77 0 0 0 5.7 5.85c3.13 0 5.68-2.62 5.68-5.85a5.77 5.77 0 0 0-5.69-5.85 5.77 5.77 0 0 0-5.69 5.85zm5.7-3.25a3.2 3.2 0 0 1 3.15 3.25 3.2 3.2 0 0 1-3.16 3.25 3.2 3.2 0 0 1-3.16-3.25 3.2 3.2 0 0 1 3.16-3.25z"/></defs><g><g transform="translate(-349 -1214)"><use fill="#344eff" xlink:href="#2n1na"/></g></g></svg>