<svg xmlns="http://www.w3.org/2000/svg" xmlns:xlink="http://www.w3.org/1999/xlink" width="26" height="25" viewBox="0 0 26 25"><defs><path id="c5p4a" d="M1465.79 235.6h4.76a12.41 12.41 0 0 1 1.09 4.62h-5.47a31.9 31.9 0 0 0-.38-4.62zm-2.08-6.53a12.5 12.5 0 0 1 6.38 5.61h-4.46a19.39 19.39 0 0 0-1.92-5.6zm-4 5.61v-6.44c1 .04 1.94.2 2.86.45.69 1.16 1.58 3.1 2.14 5.99zm-6.05 11.08a31.68 31.68 0 0 1-.39-4.62h5.53v4.62zm-.01-10.16h5.15v4.62h-5.53c.02-1.74.16-3.26.38-4.62zm2.31-6.93c.91-.25 1.86-.4 2.84-.43v6.44h-5a18.7 18.7 0 0 1 2.16-6.01zm-7.67 6.01a12.5 12.5 0 0 1 6.54-5.65 19.34 19.34 0 0 0-1.95 5.65zm4.05 5.54h-5.58c.06-1.64.43-3.2 1.07-4.62h4.9a31.91 31.91 0 0 0-.39 4.62zm.4 5.54h-4.88a12.32 12.32 0 0 1-1.1-4.62h5.59c.02 1.75.17 3.27.39 4.62zm.15.92a18.9 18.9 0 0 0 1.96 5.66 12.48 12.48 0 0 1-6.55-5.66zm5.9 0v6.45c-.96-.03-1.9-.19-2.8-.43a18.4 18.4 0 0 1-2.17-6.02zm5.9 0a18.43 18.43 0 0 1-2.15 6c-.9.25-1.85.39-2.82.43v-6.43zm-4.97-5.54h5.52a31.69 31.69 0 0 1-.38 4.62h-5.14zm5.53-.92h-5.53v-4.62h5.15c.21 1.36.36 2.88.38 4.62zm.92.92h5.46a12.4 12.4 0 0 1-1.1 4.62h-4.75c.22-1.35.37-2.87.39-4.62zm3.91 5.54a12.44 12.44 0 0 1-6.4 5.62c.66-1.17 1.44-3 1.95-5.62z"/></defs><g><g transform="translate(-1446 -228)"><use fill="#fff" xlink:href="#c5p4a"/></g></g></svg>