<svg xmlns="http://www.w3.org/2000/svg" xmlns:xlink="http://www.w3.org/1999/xlink" width="33" height="29" viewBox="0 0 33 29"><defs><path id="o8kba" d="M705.83 1940.09h1.22l.02 27.32 30.94.06v1.15h-32.18zm12.38 0h3.7c.7 0 1.25.53 1.25 1.18v23.78h-6.2v-23.78c0-.65.56-1.18 1.25-1.18zm-7.43 7.13h3.71c.69 0 1.24.53 1.24 1.19v16.64h-6.19v-16.64c0-.66.56-1.2 1.24-1.2zm14.85 7.13h3.72c.68 0 1.23.53 1.23 1.19v9.5h-6.19v-9.5c0-.66.56-1.19 1.24-1.19zm7.43 7.13h3.71c.69 0 1.24.54 1.24 1.2v2.37h-6.19v-2.38c0-.65.56-1.19 1.24-1.19z"/></defs><g><g transform="translate(-705 -1940)"><use fill="#fff" xlink:href="#o8kba"/></g></g></svg>