<svg xmlns="http://www.w3.org/2000/svg" xmlns:xlink="http://www.w3.org/1999/xlink" width="19" height="27" viewBox="0 0 19 27"><defs><path id="uxswa" d="M1450.53 126.07c0-2.9 2.41-5.26 5.38-5.26a5.33 5.33 0 0 1 5.38 5.26c0 2.91-2.4 5.27-5.38 5.27a5.32 5.32 0 0 1-5.38-5.27zm-3.76.66c0 2.2 2.72 6.85 2.72 6.85l6.42 10.54 6.05-10.54s3.1-4.68 3.1-6.85c0-4.94-4.1-8.95-9.15-8.95a9.05 9.05 0 0 0-9.14 8.95z"/></defs><g><g transform="translate(-1446 -117)"><use fill="#fff" xlink:href="#uxswa"/></g></g></svg>