<svg xmlns="http://www.w3.org/2000/svg" xmlns:xlink="http://www.w3.org/1999/xlink" width="44" height="39" viewBox="0 0 44 39"><defs><path id="aavwa" d="M216.31 1248.46v-3.14h-.04c.02-.26.04-.52.04-.79v-17.28c0-7.38-6.07-13.36-13.56-13.36-7.5 0-13.57 5.98-13.57 13.36v17.28c0 .27.02.53.04.79h-.04v3.14s-7.98-.13-7.98-8.64c0-4.83 2.57-6.96 4.79-7.9v-4.67c0-9.12 7.5-16.5 16.76-16.5 9.25 0 16.76 7.38 16.76 16.5v4.67c2.22.94 4.78 3.07 4.78 7.9 0 8.51-7.98 8.64-7.98 8.64zm-23.94 0h-1.6v-17.29h1.6zm22.35 0h-1.6v-17.29h1.6z"/></defs><g><g transform="translate(-181 -1210)"><use fill="#344eff" xlink:href="#aavwa"/></g></g></svg>