<svg xmlns="http://www.w3.org/2000/svg" xmlns:xlink="http://www.w3.org/1999/xlink" width="33" height="31" viewBox="0 0 33 31"><defs><path id="x544a" d="M203.88 600.6h-27.42a2.4 2.4 0 0 1-2.38-2.4v-14.39s6.22 3.22 11.92 4.54v1.46c0 .66.53 1.2 1.2 1.2h5.95c.66 0 1.2-.54 1.2-1.2v-1.46c5.69-1.32 11.91-4.54 11.91-4.54v14.4a2.4 2.4 0 0 1-2.38 2.4zm-11.92-14.39c.66 0 1.2.54 1.2 1.2v1.2c0 .66-.54 1.2-1.2 1.2h-3.58a1.2 1.2 0 0 1-1.19-1.2v-1.2c0-.66.53-1.2 1.2-1.2zm2.38 0c0-.66-.53-1.2-1.19-1.2h-5.96c-.66 0-1.2.54-1.2 1.2v1.07c-5.69-1.35-11.91-4.67-11.91-4.67v-4.8a2.4 2.4 0 0 1 2.38-2.4h7.16v-2.4a2.4 2.4 0 0 1 2.38-2.4h8.34a2.4 2.4 0 0 1 2.39 2.4v2.4h7.15a2.4 2.4 0 0 1 2.38 2.4v4.8s-6.22 3.32-11.92 4.67zm0-12c0-.66-.53-1.2-1.19-1.2h-5.96c-.66 0-1.2.54-1.2 1.2v1.2h8.35v-1.2z"/></defs><g><g transform="translate(-174 -570)"><use fill="#fff" xlink:href="#x544a"/></g></g></svg>