<svg xmlns="http://www.w3.org/2000/svg" xmlns:xlink="http://www.w3.org/1999/xlink" width="19" height="25" viewBox="0 0 19 25"><defs><path id="3sp6a" d="M1452.2 360.02c-.91.56-.47 1.82.08 3.05 0 .06 2.65 4.64 2.67 4.66 1.37 1.9 2.1 2.78 2.98 2.25l3.72 6.47c-1.05.67-6.3 1.08-11.8-8.8-5.24-9.36-2.44-13.5-1.46-14.26zm11.71 15.07l-1.77 1.08-3.73-6.5 1.78-1.08a.8.8 0 0 1 1.1.3l2.91 5.04c.22.39.12.9-.28 1.16zm-9.44-16.44l-1.78 1.08-3.8-6.64 1.77-1.08a.8.8 0 0 1 1.11.3l2.99 5.18c.22.39.12.9-.29 1.15z"/></defs><g><g transform="translate(-1446 -352)"><use fill="#fff" xlink:href="#3sp6a"/></g></g></svg>